<?xml version="1.0" encoding="UTF-8"?>
<!DOCTYPE svg PUBLIC "-//W3C//DTD SVG 1.1//EN" "http://www.w3.org/Graphics/SVG/1.1/DTD/svg11.dtd">
<svg xmlns="http://www.w3.org/2000/svg" version="1.1" width="850px" height="569px" style="shape-rendering:geometricPrecision; text-rendering:geometricPrecision; image-rendering:optimizeQuality; fill-rule:evenodd; clip-rule:evenodd" xmlns:xlink="http://www.w3.org/1999/xlink">
<g><path style="opacity:1" fill="#fefefe" d="M -0.5,-0.5 C 193.167,-0.5 386.833,-0.5 580.5,-0.5C 537.104,4.09634 494.771,13.9297 453.5,29C 407.824,47.0046 364.157,69.0046 322.5,95C 231.68,152.031 151.013,221.531 80.5,303.5C 71.5947,314.971 63.4281,326.971 56,339.5C 43.4141,364.346 30.0808,388.679 16,412.5C 9.79462,424.654 4.29462,436.988 -0.5,449.5C -0.5,299.5 -0.5,149.5 -0.5,-0.5 Z"/></g>
<g><path style="opacity:1" fill="#b58800" d="M 580.5,-0.5 C 597.5,-0.5 614.5,-0.5 631.5,-0.5C 677.345,2.94804 719.345,17.448 757.5,43C 802.503,78.3677 830.67,124.201 842,180.5C 845.217,196.53 847.717,212.53 849.5,228.5C 849.5,246.833 849.5,265.167 849.5,283.5C 844.953,344.983 828.12,402.983 799,457.5C 784.275,483.456 765.442,505.956 742.5,525C 717.877,542.213 690.877,554.213 661.5,561C 645.814,564.31 630.147,566.81 614.5,568.5C 595.833,568.5 577.167,568.5 558.5,568.5C 497.149,562.993 437.482,549.493 379.5,528C 345.268,515.555 311.935,500.888 279.5,484C 235.28,467.991 189.614,460.491 142.5,461.5C 99.4134,461.992 56.7468,466.326 14.5,474.5C 7.74918,472.982 2.74918,469.316 -0.5,463.5C -0.5,458.833 -0.5,454.167 -0.5,449.5C 4.29462,436.988 9.79462,424.654 16,412.5C 30.0808,388.679 43.4141,364.346 56,339.5C 63.4281,326.971 71.5947,314.971 80.5,303.5C 151.013,221.531 231.68,152.031 322.5,95C 364.157,69.0046 407.824,47.0046 453.5,29C 494.771,13.9297 537.104,4.09634 580.5,-0.5 Z"/></g>
<g><path style="opacity:1" fill="#fefefd" d="M 631.5,-0.5 C 704.167,-0.5 776.833,-0.5 849.5,-0.5C 849.5,75.8333 849.5,152.167 849.5,228.5C 847.717,212.53 845.217,196.53 842,180.5C 830.67,124.201 802.503,78.3677 757.5,43C 719.345,17.448 677.345,2.94804 631.5,-0.5 Z"/></g>
<g><path style="opacity:1" fill="#fefefe" d="M 849.5,283.5 C 849.5,378.5 849.5,473.5 849.5,568.5C 771.167,568.5 692.833,568.5 614.5,568.5C 630.147,566.81 645.814,564.31 661.5,561C 690.877,554.213 717.877,542.213 742.5,525C 765.442,505.956 784.275,483.456 799,457.5C 828.12,402.983 844.953,344.983 849.5,283.5 Z"/></g>
<g><path style="opacity:1" fill="#fefefe" d="M 558.5,568.5 C 372.167,568.5 185.833,568.5 -0.5,568.5C -0.5,533.5 -0.5,498.5 -0.5,463.5C 2.74918,469.316 7.74918,472.982 14.5,474.5C 56.7468,466.326 99.4134,461.992 142.5,461.5C 189.614,460.491 235.28,467.991 279.5,484C 311.935,500.888 345.268,515.555 379.5,528C 437.482,549.493 497.149,562.993 558.5,568.5 Z"/></g>
</svg>
