<?xml version="1.0" encoding="UTF-8"?>
<!DOCTYPE svg PUBLIC "-//W3C//DTD SVG 1.1//EN" "http://www.w3.org/Graphics/SVG/1.1/DTD/svg11.dtd">
<svg xmlns="http://www.w3.org/2000/svg" version="1.1" width="865px" height="525px" style="shape-rendering:geometricPrecision; text-rendering:geometricPrecision; image-rendering:optimizeQuality; fill-rule:evenodd; clip-rule:evenodd" xmlns:xlink="http://www.w3.org/1999/xlink">
<g><path style="opacity:1" fill="#fefefe" d="M -0.5,-0.5 C 196.5,-0.5 393.5,-0.5 590.5,-0.5C 519.609,6.73422 451.943,25.9009 387.5,57C 275.357,111.718 175.69,183.551 88.5,272.5C 76.7105,285.786 65.8772,299.786 56,314.5C 39.9981,341.182 23.9981,367.849 8,394.5C 4.83925,401.14 2.00592,407.807 -0.5,414.5C -0.5,276.167 -0.5,137.833 -0.5,-0.5 Z"/></g>
<g><path style="opacity:1" fill="#b58800" d="M 590.5,-0.5 C 608.167,-0.5 625.833,-0.5 643.5,-0.5C 683.744,2.4382 721.911,13.1049 758,31.5C 808.048,61.5373 840.714,104.871 856,161.5C 859.826,178.14 862.659,194.807 864.5,211.5C 864.5,228.167 864.5,244.833 864.5,261.5C 859.218,322.846 840.051,379.512 807,431.5C 776.221,476.207 734.054,504.374 680.5,516C 662.508,519.833 644.508,522.667 626.5,524.5C 606.833,524.5 587.167,524.5 567.5,524.5C 486.754,517.314 408.754,498.481 333.5,468C 316.384,460.853 299.384,453.52 282.5,446C 249.101,434.699 214.768,428.366 179.5,427C 124.275,424.484 69.4417,427.984 15,437.5C 8.13279,436.501 2.96612,433.168 -0.5,427.5C -0.5,423.167 -0.5,418.833 -0.5,414.5C 2.00592,407.807 4.83925,401.14 8,394.5C 23.9981,367.849 39.9981,341.182 56,314.5C 65.8772,299.786 76.7105,285.786 88.5,272.5C 175.69,183.551 275.357,111.718 387.5,57C 451.943,25.9009 519.609,6.73422 590.5,-0.5 Z"/></g>
<g><path style="opacity:1" fill="#fefefd" d="M 643.5,-0.5 C 717.167,-0.5 790.833,-0.5 864.5,-0.5C 864.5,70.1667 864.5,140.833 864.5,211.5C 862.659,194.807 859.826,178.14 856,161.5C 840.714,104.871 808.048,61.5373 758,31.5C 721.911,13.1049 683.744,2.4382 643.5,-0.5 Z"/></g>
<g><path style="opacity:1" fill="#fefefd" d="M 864.5,261.5 C 864.5,349.167 864.5,436.833 864.5,524.5C 785.167,524.5 705.833,524.5 626.5,524.5C 644.508,522.667 662.508,519.833 680.5,516C 734.054,504.374 776.221,476.207 807,431.5C 840.051,379.512 859.218,322.846 864.5,261.5 Z"/></g>
<g><path style="opacity:1" fill="#fefefe" d="M 567.5,524.5 C 378.167,524.5 188.833,524.5 -0.5,524.5C -0.5,492.167 -0.5,459.833 -0.5,427.5C 2.96612,433.168 8.13279,436.501 15,437.5C 69.4417,427.984 124.275,424.484 179.5,427C 214.768,428.366 249.101,434.699 282.5,446C 299.384,453.52 316.384,460.853 333.5,468C 408.754,498.481 486.754,517.314 567.5,524.5 Z"/></g>
</svg>
